<svg viewBox="0 0 120 120" fill="none" xmlns="http://www.w3.org/2000/svg">
    <rect width="120" height="120" rx="28" fill="url(#icon-gradient)"/>
    <path d="M60 30C43.4 30 30 43.4 30 60C30 76.6 43.4 90 60 90C76.6 90 90 76.6 90 60C90 43.4 76.6 30 60 30ZM60 82C47.8 82 38 72.2 38 60C38 47.8 47.8 38 60 38C72.2 38 82 47.8 82 60C82 72.2 72.2 82 60 82Z" fill="white" fill-opacity="0.9"/>
    <path d="M60 45C51.7 45 45 51.7 45 60C45 68.3 51.7 75 60 75C68.3 75 75 68.3 75 60C75 51.7 68.3 45 60 45Z" fill="white" fill-opacity="0.3"/>
    <path d="M35 60L42 52L49 62L56 48L63 58L70 45L77 55L85 60" stroke="#34C759" stroke-width="3" stroke-linecap="round" stroke-linejoin="round"/>
    <defs>
        <linearGradient id="icon-gradient" x1="0" y1="0" x2="120" y2="120" gradientUnits="userSpaceOnUse">
            <stop stop-color="#1C1C1E"/>
            <stop offset="1" stop-color="#2C2C2E"/>
        </linearGradient>
    </defs>
</svg>
